<svg width="16" height="16" viewBox="0 0 16 16" fill="none" xmlns="http://www.w3.org/2000/svg">
<path d="M0.5 2.16667H6.33333M6.33333 2.16667C6.33333 3.08714 7.07953 3.83333 8 3.83333C8.92047 3.83333 9.66667 3.08714 9.66667 2.16667M6.33333 2.16667C6.33333 1.24619 7.07953 0.5 8 0.5C8.92047 0.5 9.66667 1.24619 9.66667 2.16667M0.5 8H8M13.8333 8H15.5M13.8333 8C13.8333 8.92047 13.0871 9.66667 12.1667 9.66667C11.2462 9.66667 10.5 8.92047 10.5 8C10.5 7.07953 11.2462 6.33333 12.1667 6.33333C13.0871 6.33333 13.8333 7.07953 13.8333 8ZM9.66667 2.16667H15.5M8 13.8333H15.5M0.5 13.8333H2.16667M2.16667 13.8333C2.16667 14.7538 2.91286 15.5 3.83333 15.5C4.75381 15.5 5.5 14.7538 5.5 13.8333C5.5 12.9129 4.75381 12.1667 3.83333 12.1667C2.91286 12.1667 2.16667 12.9129 2.16667 13.8333Z" stroke="white" stroke-linecap="round"/>
</svg>
