<svg width="15" height="4" viewBox="0 0 15 4" fill="none" xmlns="http://www.w3.org/2000/svg">
<path d="M6.88076 1.86678C6.88076 2.25338 7.19416 2.56678 7.58076 2.56678C7.96736 2.56678 8.28076 2.25338 8.28076 1.86678C8.28076 1.48018 7.96736 1.16678 7.58076 1.16678C7.19416 1.16678 6.88076 1.48018 6.88076 1.86678Z" fill="white" stroke="white" stroke-width="1.16667" stroke-linecap="round" stroke-linejoin="round"/>
<path d="M12.7138 1.86678C12.7138 2.25338 13.0272 2.56678 13.4138 2.56678C13.8004 2.56678 14.1138 2.25338 14.1138 1.86678C14.1138 1.48018 13.8004 1.16678 13.4138 1.16678C13.0272 1.16678 12.7138 1.48018 12.7138 1.86678Z" fill="white" stroke="white" stroke-width="1.16667" stroke-linecap="round" stroke-linejoin="round"/>
<path d="M1.04739 1.86678C1.04739 2.25338 1.36079 2.56678 1.74739 2.56678C2.13399 2.56678 2.44739 2.25338 2.44739 1.86678C2.44739 1.48018 2.13399 1.16678 1.74739 1.16678C1.36079 1.16678 1.04739 1.48018 1.04739 1.86678Z" fill="white" stroke="white" stroke-width="1.16667" stroke-linecap="round" stroke-linejoin="round"/>
</svg>
